# xmcd
#
# Track frame offsets: 
#        150
#        30264
#        78404
#        107157
#        139497
#        232633
#        249161
#
# Disc length: 4013 seconds
#
# Revision: 1
# Processed by: cddbd v1.5.2PL0 Copyright (c) Steve Scherf et al.
# Submitted via: ExactAudioCopyFreeDBPlugin 1.0
#
DISCID=480fab07
DTITLE=Oophoi and Louisa John Krol - I hear the water dreaming
DYEAR=2005
DGENRE=New Age
TTITLE0=The Narni Owl
TTITLE1=Conversations between a Wolf and a Firefly
TTITLE2=The hour of Fauns
TTITLE3=Let teh Nightsky Envelope Us
TTITLE4=Cavern of Dreaming Shells
TTITLE5=The Whispering Valley
TTITLE6=A Vessel for Michael
EXTD=
EXTT0=
EXTT1=
EXTT2=
EXTT3=
EXTT4=
EXTT5=
EXTT6=
PLAYORDER=
